<svg aria-hidden="true" style="position: absolute; width: 0; height: 0; overflow: hidden;" version="1.1" xmlns="http://www.w3.org/2000/svg" xmlns:xlink="http://www.w3.org/1999/xlink">
<defs>
<symbol id="icon-heart" viewBox="0 0 38 32">
<path stroke-linejoin="round" stroke-linecap="round" stroke-miterlimit="4" stroke-width="2.9091" d="M32.839 4.355c-1.569-1.569-3.736-2.539-6.13-2.539s-4.561 0.97-6.13 2.539l-1.67 1.671-1.67-1.671c-1.569-1.569-3.736-2.539-6.13-2.539-4.788 0-8.669 3.881-8.669 8.669 0 2.394 0.97 4.561 2.539 6.13l13.93 13.929 13.93-13.93c1.569-1.569 2.539-3.736 2.539-6.129s-0.97-4.561-2.539-6.129v0"></path>
</symbol>
<symbol id="icon-x" viewBox="0 0 32 32">
<path stroke-linejoin="round" stroke-linecap="round" stroke-miterlimit="4" stroke-width="2.5" d="M24 8l-16 16M8 8l16 16"></path>
</symbol>
<symbol id="icon-y-heart" viewBox="0 0 35 32">
<path fill="#f4c550" style="fill: var(--color1, #f4c550); stroke: var(--color1, #f4c550)" stroke="#f4c550" stroke-linejoin="round" stroke-linecap="round" stroke-miterlimit="4" stroke-width="1.4545" d="M31.385 4.355c-1.569-1.569-3.736-2.539-6.13-2.539s-4.561 0.97-6.13 2.539l-1.67 1.671-1.67-1.671c-1.569-1.569-3.736-2.539-6.13-2.539-4.788 0-8.669 3.881-8.669 8.669 0 2.394 0.97 4.561 2.539 6.13l13.93 13.929 13.93-13.93c1.569-1.569 2.539-3.736 2.539-6.129s-0.97-4.561-2.539-6.129v0"></path>
</symbol>
<symbol id="icon-log-in" viewBox="0 0 32 32">
<path fill="none" stroke="#f4c550" style="stroke: var(--color1, #f4c550)" stroke-linejoin="round" stroke-linecap="round" stroke-miterlimit="4" stroke-width="3.2" d="M20 4h1.6c2.24 0 3.36 0 4.216 0.435 0.756 0.391 1.357 0.992 1.737 1.726l0.011 0.022c0.437 0.856 0.437 1.976 0.437 4.216v11.2c0 2.24 0 3.36-0.437 4.216-0.391 0.756-0.992 1.356-1.725 1.737l-0.022 0.011c-0.856 0.437-1.976 0.437-4.216 0.437h-1.6M13.333 9.333l6.667 6.667M20 16l-6.667 6.667M20 16h-16"></path>
</symbol>
<symbol id="icon-logo" viewBox="0 0 152 32">
<path fill="#ffda44" style="fill: var(--color2, #ffda44)" d="M16 32c8.837 0 16-7.163 16-16s-7.163-16-16-16-16 7.163-16 16 7.163 16 16 16z"></path>
<path fill="#338af3" style="fill: var(--color3, #338af3)" d="M0 16c0-8.837 7.163-16 16-16s16 7.163 16 16z"></path>
<path fill="#121417" style="fill: var(--color4, #121417)" d="M52.974 21.779v2.221h-8.16v-2.221zM45.597 7.749v16.251h-2.802v-16.25zM59.737 24.223q-1.339 0-2.423-0.434c-0.715-0.297-1.323-0.717-1.827-1.238l-0.001-0.002c-0.49-0.52-0.881-1.14-1.138-1.825l-0.012-0.038c-0.254-0.669-0.401-1.443-0.401-2.251 0-0.021 0-0.042 0-0.063l-0 0.003v-0.446q0-1.417 0.413-2.568 0.413-1.149 1.15-1.963 0.737-0.826 1.741-1.262c0.624-0.275 1.352-0.435 2.117-0.435 0.021 0 0.042 0 0.064 0l-0.003-0q1.295 0 2.265 0.434c0.643 0.285 1.182 0.702 1.601 1.219l0.006 0.008q0.648 0.782 0.96 1.864 0.323 1.082 0.323 2.389v1.15h-9.33v-1.931h6.674v-0.211c-0.013-0.494-0.118-0.96-0.3-1.386l0.009 0.025q-0.256-0.637-0.792-1.027t-1.429-0.391q-0.669 0-1.194 0.29-0.514 0.279-0.859 0.815-0.346 0.536-0.536 1.295c-0.114 0.483-0.179 1.037-0.179 1.607 0 0.028 0 0.055 0 0.083l-0-0.004v0.446q0 0.792 0.213 1.474 0.223 0.669 0.647 1.171t1.026 0.792q0.602 0.279 1.374 0.279 0.97 0 1.729-0.391c0.525-0.277 0.964-0.648 1.311-1.095l0.007-0.009 1.417 1.371c-0.294 0.417-0.629 0.777-1.007 1.087l-0.009 0.008q-0.624 0.514-1.529 0.837-0.891 0.323-2.075 0.323zM73.018 21.578v-5.76q0-0.646-0.234-1.115c-0.159-0.313-0.404-0.563-0.705-0.721l-0.009-0.004q-0.469-0.257-1.183-0.256-0.658 0-1.138 0.223c-0.304 0.135-0.557 0.341-0.744 0.597l-0.004 0.005c-0.168 0.234-0.269 0.526-0.269 0.841 0 0.006 0 0.013 0 0.019v-0.001h-2.678q0-0.713 0.345-1.383 0.346-0.671 1.006-1.194c0.448-0.351 0.97-0.633 1.537-0.816l0.036-0.010c0.586-0.192 1.261-0.302 1.962-0.302 0.032 0 0.065 0 0.097 0.001l-0.005-0q1.361 0 2.411 0.457 1.059 0.458 1.663 1.385 0.614 0.914 0.614 2.298v5.369q0 0.825 0.111 1.483c0.076 0.425 0.196 0.803 0.359 1.158l-0.012-0.030v0.178h-2.757c-0.134-0.319-0.239-0.691-0.298-1.079l-0.003-0.027c-0.062-0.394-0.099-0.85-0.101-1.315v-0.002zM73.409 16.656l0.023 1.663h-1.931q-0.747 0-1.317 0.145c-0.36 0.079-0.678 0.218-0.958 0.408l0.010-0.006c-0.241 0.165-0.434 0.382-0.565 0.637l-0.004 0.010q-0.189 0.381-0.19 0.859 0 0.48 0.223 0.882 0.224 0.391 0.647 0.614 0.434 0.223 1.050 0.223 0.825 0 1.44-0.335c0.392-0.21 0.72-0.491 0.976-0.829l0.005-0.007q0.357-0.503 0.379-0.949l0.87 1.193c-0.119 0.375-0.274 0.7-0.467 0.999l0.010-0.016c-0.244 0.383-0.525 0.713-0.844 1.001l-0.004 0.004q-0.514 0.469-1.239 0.77-0.715 0.301-1.651 0.301-1.183 0-2.11-0.469c-0.596-0.303-1.085-0.738-1.443-1.27l-0.009-0.014c-0.329-0.506-0.525-1.125-0.525-1.79 0-0.018 0-0.036 0-0.054l-0 0.003q0-0.96 0.358-1.697 0.368-0.747 1.071-1.249 0.715-0.503 1.742-0.759 1.026-0.269 2.343-0.269zM80.776 14.223v9.777h-2.69v-12.075h2.567zM84.47 11.846l-0.023 2.501c-0.146-0.027-0.329-0.051-0.515-0.066l-0.020-0.001c-0.167-0.014-0.361-0.023-0.558-0.023h-0q-0.693 0.001-1.217 0.201-0.525 0.19-0.881 0.559c-0.231 0.242-0.413 0.531-0.531 0.853l-0.005 0.017q-0.19 0.514-0.223 1.15l-0.614 0.046q0-1.139 0.223-2.11t0.67-1.709q0.457-0.736 1.138-1.149 0.693-0.414 1.597-0.414 0.246 0 0.525 0.046 0.29 0.043 0.434 0.099zM88.366 14.503v9.497h-2.69v-12.075h2.534zM87.886 17.515l-0.871-0.011q0.011-1.282 0.358-2.354c0.23-0.706 0.565-1.318 0.992-1.853l-0.009 0.012q0.634-0.771 1.517-1.184c0.555-0.267 1.207-0.423 1.896-0.423 0.024 0 0.048 0 0.072 0.001l-0.004-0q0.871-0.001 1.574 0.245 0.715 0.235 1.216 0.77 0.514 0.537 0.782 1.394 0.267 0.848 0.267 2.088v7.801h-2.701v-7.813q0-0.871-0.256-1.373c-0.148-0.324-0.402-0.578-0.717-0.722l-0.009-0.004q-0.469-0.223-1.173-0.223-0.691 0-1.239 0.29-0.546 0.29-0.926 0.792c-0.241 0.332-0.435 0.718-0.562 1.134l-0.007 0.028c-0.128 0.412-0.201 0.885-0.201 1.375 0 0.011 0 0.021 0 0.032v-0.002zM108.411 21.778v2.222h-8.16v-2.221zM101.032 7.751v16.249h-2.8v-16.25zM112.729 11.926v12.074h-2.701v-12.075zM109.851 8.754q0-0.614 0.402-1.016 0.413-0.411 1.138-0.411 0.714 0 1.128 0.411 0.411 0.402 0.411 1.017 0 0.601-0.411 1.003-0.413 0.401-1.128 0.402-0.725 0-1.138-0.402c-0.249-0.248-0.403-0.592-0.403-0.971 0-0.012 0-0.024 0-0.036l-0 0.002zM117.888 14.503v9.497h-2.689v-12.075h2.533zM117.408 17.515l-0.87-0.011c0-0.003 0-0.006 0-0.010 0-0.837 0.13-1.643 0.372-2.4l-0.015 0.056c0.23-0.706 0.564-1.318 0.991-1.853l-0.009 0.012q0.637-0.771 1.519-1.184c0.555-0.267 1.207-0.423 1.896-0.423 0.024 0 0.047 0 0.071 0.001l-0.004-0q0.871-0.001 1.574 0.245 0.715 0.235 1.217 0.77 0.513 0.537 0.781 1.394 0.269 0.848 0.269 2.088v7.801h-2.702v-7.813q0-0.871-0.256-1.373c-0.148-0.324-0.402-0.578-0.717-0.722l-0.009-0.004q-0.469-0.223-1.171-0.223-0.693 0-1.239 0.29t-0.927 0.792c-0.241 0.332-0.435 0.718-0.562 1.134l-0.007 0.028c-0.128 0.412-0.201 0.885-0.201 1.375 0 0.011 0 0.021 0 0.032v-0.002zM135.222 11.925h2.443v11.741q0 1.629-0.691 2.768c-0.462 0.754-1.12 1.347-1.904 1.719l-0.027 0.012q-1.238 0.602-2.867 0.602-0.693 0-1.541-0.201c-0.617-0.152-1.16-0.374-1.66-0.663l0.030 0.016c-0.523-0.291-0.958-0.677-1.297-1.139l-0.008-0.011 1.261-1.585q0.648 0.77 1.429 1.127 0.781 0.358 1.641 0.358 0.926 0 1.574-0.346 0.658-0.335 1.015-0.993t0.358-1.607v-9.063zM127.018 18.096v-0.234q0-1.371 0.335-2.501 0.334-1.137 0.96-1.953 0.624-0.826 1.518-1.261 0.893-0.446 2.019-0.446 1.173 0 1.998 0.423 0.839 0.425 1.395 1.217 0.559 0.781 0.871 1.874 0.323 1.083 0.48 2.411v0.747c-0.095 0.881-0.268 1.683-0.515 2.451l0.024-0.086c-0.222 0.707-0.533 1.322-0.929 1.873l0.013-0.020c-0.366 0.506-0.837 0.913-1.384 1.194l-0.022 0.010q-0.826 0.425-1.953 0.424c-0.017 0-0.037 0-0.057 0-0.707 0-1.375-0.169-1.965-0.469l0.025 0.011c-0.606-0.322-1.112-0.753-1.51-1.272l-0.008-0.011c-0.415-0.554-0.744-1.201-0.949-1.9l-0.011-0.043c-0.213-0.711-0.335-1.528-0.335-2.373 0-0.025 0-0.049 0-0.074l-0 0.004zM129.707 17.862v0.234q0 0.826 0.157 1.541 0.167 0.713 0.503 1.261 0.345 0.537 0.87 0.848 0.537 0.302 1.262 0.302 0.949 0 1.551-0.402c0.405-0.268 0.725-0.635 0.931-1.066l0.007-0.016c0.217-0.447 0.381-0.965 0.465-1.51l0.004-0.031v-2.019c-0.044-0.453-0.143-0.869-0.29-1.261l0.011 0.034c-0.133-0.381-0.319-0.711-0.552-1.001l0.005 0.006c-0.23-0.286-0.522-0.514-0.856-0.663l-0.015-0.006q-0.525-0.246-1.239-0.246-0.726 0-1.261 0.312c-0.363 0.215-0.659 0.504-0.876 0.849l-0.006 0.011q-0.334 0.547-0.502 1.273c-0.107 0.453-0.168 0.974-0.168 1.509 0 0.015 0 0.029 0 0.044v-0.002zM139.485 18.096v-0.257q0-1.305 0.379-2.422c0.249-0.753 0.622-1.404 1.101-1.961l-0.006 0.008c0.476-0.549 1.065-0.988 1.731-1.282l0.031-0.012q1.049-0.469 2.367-0.469 1.328 0 2.366 0.469c0.702 0.306 1.295 0.745 1.77 1.289l0.005 0.006q0.725 0.826 1.105 1.954 0.379 1.115 0.379 2.421v0.257q0 1.305-0.379 2.423c-0.255 0.752-0.631 1.402-1.112 1.96l0.006-0.008q-0.726 0.826-1.763 1.295-1.038 0.457-2.355 0.457-1.328 0-2.377-0.457c-0.695-0.314-1.282-0.752-1.759-1.289l-0.005-0.005c-0.474-0.55-0.85-1.2-1.093-1.912l-0.012-0.041c-0.241-0.705-0.38-1.518-0.38-2.363 0-0.021 0-0.041 0-0.062l-0 0.003zM142.175 17.839v0.257q0 0.815 0.167 1.541 0.168 0.725 0.525 1.272 0.359 0.547 0.915 0.859 0.559 0.312 1.328 0.312 0.749 0 1.295-0.312 0.559-0.312 0.915-0.859c0.237-0.365 0.418-0.79 0.52-1.246l0.005-0.026c0.113-0.451 0.178-0.968 0.178-1.501 0-0.014-0-0.028-0-0.042v0.002-0.257q0-0.802-0.178-1.518c-0.109-0.486-0.294-0.916-0.545-1.298l0.009 0.015c-0.231-0.363-0.539-0.656-0.903-0.863l-0.013-0.007q-0.547-0.325-1.305-0.325-0.759 0-1.318 0.325c-0.37 0.217-0.674 0.51-0.898 0.859l-0.006 0.011q-0.357 0.559-0.525 1.283-0.167 0.715-0.167 1.518z"></path>
</symbol>
</defs>
</svg>
